<?xml version="1.0" standalone="no"?>
<!DOCTYPE svg PUBLIC "-//W3C//DTD SVG 20010904//EN"
 "http://www.w3.org/TR/2001/REC-SVG-20010904/DTD/svg10.dtd">
<svg version="1.0" xmlns="http://www.w3.org/2000/svg"
 width="512.000000pt" height="512.000000pt" viewBox="0 0 512.000000 512.000000"
 preserveAspectRatio="xMidYMid meet">
<metadata>
Created by potrace 1.11, written by Peter Selinger 2001-2013
</metadata>
<g transform="translate(0.000000,512.000000) scale(0.100000,-0.100000)"
fill="#000000" stroke="none">
<path d="M303 5105 c-154 -42 -261 -155 -293 -310 -7 -34 -9 -767 -8 -2265 l3
-2215 23 -58 c45 -111 133 -195 246 -234 48 -17 161 -18 2291 -18 l2240 0 58
23 c111 45 195 133 234 246 17 48 18 161 18 2286 0 2125 -1 2238 -18 2286 -39
113 -123 201 -234 246 l-58 23 -2225 2 c-1894 2 -2233 0 -2277 -12z m4512
-169 c60 -28 97 -66 124 -126 20 -45 21 -53 21 -2250 0 -2197 -1 -2205 -21
-2250 -27 -60 -64 -98 -124 -126 l-50 -24 -2205 0 c-2197 0 -2205 1 -2250 21
-60 27 -98 64 -126 124 l-24 50 0 2205 c0 2197 1 2205 21 2250 27 60 64 98
124 126 l50 24 2205 0 2205 0 50 -24z"/>
<path d="M524 4628 c-34 -16 -44 -51 -44 -148 0 -99 10 -132 47 -149 16 -7
133 -11 353 -11 220 0 337 4 353 11 37 17 47 50 47 149 0 99 -10 132 -47 149
-32 15 -679 14 -709 -1z"/>
<path d="M3935 4626 c-101 -44 -125 -178 -46 -257 112 -113 296 -12 267 146
-18 94 -131 151 -221 111z"/>
<path d="M4415 4626 c-101 -44 -125 -178 -46 -257 112 -113 296 -12 267 146
-18 94 -131 151 -221 111z"/>
<path d="M2906 4534 c-15 -16 -26 -38 -26 -54 0 -35 44 -80 79 -80 54 0 95 66
70 112 -29 54 -81 63 -123 22z"/>
<path d="M3226 4534 c-15 -16 -26 -38 -26 -54 0 -35 44 -80 79 -80 54 0 95 66
70 112 -29 54 -81 63 -123 22z"/>
<path d="M3546 4534 c-15 -16 -26 -38 -26 -54 0 -35 44 -80 79 -80 54 0 95 66
70 112 -29 54 -81 63 -123 22z"/>
<path d="M523 4148 c-32 -16 -48 -61 -34 -97 17 -40 49 -51 151 -51 102 0 134
11 151 51 15 37 -2 82 -37 98 -31 14 -201 13 -231 -1z"/>
<path d="M1003 4148 c-32 -16 -48 -61 -34 -97 17 -40 49 -51 151 -51 102 0
134 11 151 51 15 37 -2 82 -37 98 -31 14 -201 13 -231 -1z"/>
<path d="M2923 4148 c-12 -6 -27 -23 -34 -39 -15 -37 2 -82 37 -98 17 -7 131
-11 354 -11 223 0 337 4 354 11 55 26 55 112 0 138 -33 15 -680 14 -711 -1z"/>
<path d="M3883 4148 c-32 -16 -48 -61 -34 -97 17 -40 49 -51 151 -51 102 0
134 11 151 51 15 37 -2 82 -37 98 -31 14 -201 13 -231 -1z"/>
<path d="M4363 4148 c-32 -16 -48 -61 -34 -97 17 -40 49 -51 151 -51 102 0
134 11 151 51 15 37 -2 82 -37 98 -31 14 -201 13 -231 -1z"/>
<path d="M495 3666 c-101 -44 -125 -178 -46 -257 112 -113 296 -12 267 146
-18 94 -131 151 -221 111z m98 -78 c49 -26 62 -78 27 -115 -42 -45 -108 -36
-130 18 -28 66 41 131 103 97z"/>
<path d="M1295 3666 c-101 -44 -125 -178 -46 -257 112 -113 296 -12 267 146
-18 94 -131 151 -221 111z m112 -86 c29 -27 37 -56 23 -89 -23 -56 -87 -65
-130 -19 -62 67 41 170 107 108z"/>
<path d="M2095 3666 c-101 -44 -125 -178 -46 -257 112 -113 296 -12 267 146
-18 94 -131 151 -221 111z m112 -86 c29 -27 37 -56 23 -89 -23 -56 -87 -65
-130 -19 -62 67 41 170 107 108z"/>
<path d="M2895 3666 c-101 -44 -125 -178 -46 -257 112 -113 296 -12 267 146
-18 94 -131 151 -221 111z m112 -86 c29 -27 37 -56 23 -89 -23 -56 -87 -65
-130 -19 -62 67 41 170 107 108z"/>
<path d="M3695 3666 c-101 -44 -125 -178 -46 -257 112 -113 296 -12 267 146
-18 94 -131 151 -221 111z m112 -86 c29 -27 37 -56 23 -89 -23 -56 -87 -65
-130 -19 -62 67 41 170 107 108z"/>
<path d="M4495 3666 c-101 -44 -125 -178 -46 -257 112 -113 296 -12 267 146
-18 94 -131 151 -221 111z m112 -86 c29 -27 37 -56 23 -89 -23 -56 -87 -65
-130 -19 -62 67 41 170 107 108z"/>
<path d="M495 3186 c-101 -44 -125 -178 -46 -257 112 -113 296 -12 267 146
-18 94 -131 151 -221 111z m98 -78 c45 -24 56 -56 36 -102 -27 -58 -115 -55
-139 5 -28 66 41 131 103 97z"/>
<path d="M1295 3186 c-101 -44 -125 -178 -46 -257 112 -113 296 -12 267 146
-18 94 -131 151 -221 111z m112 -86 c29 -27 37 -56 23 -89 -23 -56 -87 -65
-130 -19 -61 66 41 170 107 108z"/>
<path d="M2095 3186 c-101 -44 -125 -178 -46 -257 112 -113 296 -12 267 146
-18 94 -131 151 -221 111z m112 -86 c29 -27 37 -56 23 -89 -29 -72 -127 -61
-146 15 -17 68 73 121 123 74z"/>
<path d="M2895 3186 c-101 -44 -125 -178 -46 -257 112 -113 296 -12 267 146
-18 94 -131 151 -221 111z m112 -86 c29 -27 37 -56 23 -89 -29 -72 -127 -61
-146 15 -17 68 73 121 123 74z"/>
<path d="M3695 3186 c-101 -44 -125 -178 -46 -257 112 -113 296 -12 267 146
-18 94 -131 151 -221 111z m112 -86 c29 -27 37 -56 23 -89 -23 -56 -87 -65
-130 -19 -61 66 41 170 107 108z"/>
<path d="M4495 3186 c-101 -44 -125 -178 -46 -257 112 -113 296 -12 267 146
-18 94 -131 151 -221 111z m112 -86 c29 -27 37 -56 23 -89 -23 -56 -87 -65
-130 -19 -61 66 41 170 107 108z"/>
<path d="M495 2706 c-101 -44 -125 -178 -46 -257 65 -65 157 -65 222 0 124
124 -15 327 -176 257z"/>
<path d="M1295 2706 c-101 -44 -125 -178 -46 -257 65 -65 157 -65 222 0 124
124 -15 327 -176 257z"/>
<path d="M2095 2706 c-101 -44 -125 -178 -46 -257 65 -65 157 -65 222 0 124
124 -15 327 -176 257z"/>
<path d="M2895 2706 c-101 -44 -125 -178 -46 -257 65 -65 157 -65 222 0 124
124 -15 327 -176 257z"/>
<path d="M3695 2706 c-101 -44 -125 -178 -46 -257 65 -65 157 -65 222 0 124
124 -15 327 -176 257z"/>
<path d="M4495 2706 c-101 -44 -125 -178 -46 -257 65 -65 157 -65 222 0 124
124 -15 327 -176 257z"/>
<path d="M495 2226 c-101 -44 -125 -178 -46 -257 65 -65 157 -65 222 0 124
124 -15 327 -176 257z"/>
<path d="M1295 2226 c-101 -44 -125 -178 -46 -257 65 -65 157 -65 222 0 124
124 -15 327 -176 257z"/>
<path d="M2095 2226 c-101 -44 -125 -178 -46 -257 65 -65 157 -65 222 0 124
124 -15 327 -176 257z"/>
<path d="M2895 2226 c-101 -44 -125 -178 -46 -257 65 -65 157 -65 222 0 124
124 -15 327 -176 257z"/>
<path d="M3695 2226 c-101 -44 -125 -178 -46 -257 65 -65 157 -65 222 0 124
124 -15 327 -176 257z"/>
<path d="M4495 2226 c-101 -44 -125 -178 -46 -257 65 -65 157 -65 222 0 124
124 -15 327 -176 257z"/>
<path d="M519 1587 c-32 -25 -39 -56 -39 -181 l0 -126 -45 0 c-58 0 -91 -16
-106 -51 -9 -22 -9 -36 0 -58 15 -35 48 -51 106 -51 l45 0 0 -286 c0 -198 4
-292 12 -307 28 -53 80 -62 122 -21 l26 27 0 293 0 294 45 0 c58 0 91 16 106
51 9 22 9 36 0 58 -15 35 -48 51 -106 51 l-45 0 0 134 c0 131 -1 134 -26 160
-29 28 -68 34 -95 13z"/>
<path d="M1306 1574 l-26 -27 0 -293 0 -294 -45 0 c-58 0 -91 -16 -106 -51 -9
-22 -9 -36 0 -58 15 -35 48 -51 106 -51 l45 0 0 -134 c0 -131 1 -134 26 -160
29 -28 68 -34 95 -13 32 25 39 56 39 181 l0 126 45 0 c58 0 91 16 106 51 9 22
9 36 0 58 -15 35 -48 51 -106 51 l-45 0 0 286 c0 198 -4 292 -12 307 -28 53
-80 62 -122 21z"/>
<path d="M2106 1574 l-26 -27 0 -213 0 -214 -45 0 c-58 0 -91 -16 -106 -51 -9
-22 -9 -36 0 -58 15 -35 48 -51 106 -51 l45 0 0 -214 0 -213 26 -27 c29 -28
68 -34 95 -13 35 27 39 53 39 261 l0 206 45 0 c58 0 91 16 106 51 9 22 9 36 0
58 -15 35 -48 51 -106 51 l-45 0 0 206 c0 208 -4 234 -39 261 -27 21 -66 15
-95 -13z"/>
<path d="M2906 1574 c-22 -22 -26 -36 -26 -80 l0 -54 -45 0 c-58 0 -91 -16
-106 -51 -9 -22 -9 -36 0 -58 15 -35 48 -51 106 -51 l45 0 0 -374 0 -373 26
-27 c42 -41 94 -32 122 21 9 15 12 129 12 387 l0 366 45 0 c58 0 91 16 106 51
9 22 9 36 0 58 -15 35 -48 51 -106 51 l-45 0 0 46 c0 101 -73 149 -134 88z"/>
<path d="M3706 1574 c-25 -26 -26 -29 -26 -160 l0 -134 -45 0 c-58 0 -91 -16
-106 -51 -9 -22 -9 -36 0 -58 15 -35 48 -51 106 -51 l45 0 0 -294 0 -293 26
-27 c42 -41 94 -32 122 21 8 15 12 109 12 307 l0 286 45 0 c58 0 91 16 106 51
9 22 9 36 0 58 -15 35 -48 51 -106 51 l-45 0 0 126 c0 125 -7 156 -39 181 -27
21 -66 15 -95 -13z"/>
<path d="M4506 1574 l-26 -27 0 -213 0 -214 -45 0 c-58 0 -91 -16 -106 -51 -9
-22 -9 -36 0 -58 15 -35 48 -51 106 -51 l45 0 0 -214 0 -213 26 -27 c29 -28
68 -34 95 -13 35 27 39 53 39 261 l0 206 45 0 c58 0 91 16 106 51 9 22 9 36 0
58 -15 35 -48 51 -106 51 l-45 0 0 206 c0 208 -4 234 -39 261 -27 21 -66 15
-95 -13z"/>
</g>
</svg>
